<?xml version="1.0" encoding="iso-8859-1"?>
<!-- Generator: Adobe Illustrator 19.0.0, SVG Export Plug-In . SVG Version: 6.00 Build 0)  -->
<svg version="1.1" id="Capa_1" xmlns="http://www.w3.org/2000/svg" xmlns:xlink="http://www.w3.org/1999/xlink" x="0px" y="0px"
	 viewBox="0 0 512 512" style="enable-background:new 0 0 512 512;" xml:space="preserve">
<g>
	<g>
		<path d="M507.605,4.395c-5.859-5.859-15.352-5.859-21.211,0l-50.23,50.23c-16.696-7.879-37.094-5.328-50.881,8.459l-95.457,95.457
			l63.627,63.638l95.462-95.462c13.788-13.788,16.339-34.186,8.459-50.881l50.23-50.23C513.465,19.746,513.465,10.254,507.605,4.395
			z"/>
	</g>
</g>
<g>
	<g>
		<path d="M88.316,466.165l-42.451-42.466c-2.955-2.959-5.402-6.22-7.758-9.518c-6.264,12.383-6.612,26.915-0.872,39.373
			l-32.84,32.84c-5.86,5.86-5.86,15.352,0,21.211c5.859,5.859,15.352,5.859,21.211,0l33.01-33.01
			c14.045,6.618,25.75,6.089,39.152-0.677C94.476,471.554,91.24,469.084,88.316,466.165z"/>
	</g>
</g>
<g>
	<g>
		<path d="M342.847,253.998l-84.844-84.844c-17.534-17.549-46.084-17.549-63.647,0c-11.851,11.851-16.113,29.15-11.147,45.19
			c1.187,3.823-0.527,8.906-4.277,12.656L67.061,338.855c-17.505,17.549-17.505,46.084,0.015,63.633l42.437,42.451
			c17.549,17.52,46.084,17.505,63.633-0.015l11.673-11.673l-53.04-53.029c-5.859-5.859-5.859-15.352,0-21.211s15.352-5.859,21.211,0
			l53.04,53.029l21.215-21.215l-53.029-53.04c-5.859-5.859-5.859-15.352,0-21.211s15.352-5.859,21.211,0l53.029,53.04l21.216-21.216
			l-53.035-53.035c-5.859-5.859-5.859-15.352,0-21.211c5.859-5.859,15.35-5.858,21.21,0.001l54.866,54.866
			c1.718-0.363,3.459-0.677,4.958-0.227c16.04,5.024,33.34,0.732,45.176-11.147C360.396,300.096,360.396,271.546,342.847,253.998z"
			/>
	</g>
</g>
<g>
</g>
<g>
</g>
<g>
</g>
<g>
</g>
<g>
</g>
<g>
</g>
<g>
</g>
<g>
</g>
<g>
</g>
<g>
</g>
<g>
</g>
<g>
</g>
<g>
</g>
<g>
</g>
<g>
</g>
</svg>
