<?xml version="1.0" encoding="iso-8859-1"?>
<!-- Generator: Adobe Illustrator 19.0.0, SVG Export Plug-In . SVG Version: 6.00 Build 0)  -->
<svg version="1.1" id="Layer_1" xmlns="http://www.w3.org/2000/svg" xmlns:xlink="http://www.w3.org/1999/xlink" x="0px" y="0px"
	 viewBox="0 0 512.009 512.009" style="enable-background:new 0 0 512.009 512.009;" xml:space="preserve">
<g>
	<g>
		<path d="M348.473,248.252c-9.216-17.186-19.063-31.71-29.346-43.264l28.279-28.279c1.749-1.758,2.654-4.173,2.483-6.647
			c-0.179-2.466-1.417-4.727-3.396-6.212l-34.133-25.6c-1.638-1.229-3.601-1.766-5.538-1.673v-5.726l23.893-31.863
			c2.082-2.773,2.278-6.537,0.495-9.506l-51.2-85.333C278.466,1.579,275.684,0,272.689,0h-17.067h-17.067
			c-2.995,0-5.768,1.579-7.313,4.147l-51.2,85.333c-1.792,2.97-1.596,6.733,0.495,9.506l23.885,31.863v5.769
			c-1.655,0.085-3.302,0.572-4.702,1.63l-34.133,25.6c-1.98,1.485-3.217,3.746-3.388,6.212c-0.179,2.475,0.725,4.89,2.475,6.647
			l28.279,28.279c-13.705,15.394-26.556,35.934-38.272,61.184c-27.332,58.872-23.177,139.93,10.112,197.12l1.468,2.517
			c8.593,14.771,15.369,26.428,23.057,35.908c4.949,6.101,12.279,9.847,20.105,10.257c0.478,0.026,0.956,0.034,1.434,0.034
			c7.322,0,14.404-2.918,19.61-8.141c9.259-9.25,10.726-23.927,3.49-34.91c-29.909-45.406-37.649-69.896-37.649-119.091
			c0-37.316,40.917-96.879,57.626-119.637c0.572,0.034,1.109,0.171,1.69,0.171c0.845,0,1.638-0.179,2.475-0.247
			c16.802,22.878,57.677,82.372,57.677,119.714c0,48.196-7.91,72.678-38.485,119.091c-7.228,10.982-5.76,25.66,3.49,34.91
			c5.214,5.222,12.297,8.141,19.618,8.141c0.478,0,0.956-0.009,1.425-0.034c7.834-0.41,15.164-4.156,20.113-10.257
			c4.599-5.675,9.95-12.382,15.292-20.224C383.579,413.525,387.991,321.98,348.473,248.252z M255.622,76.809l8.533,0.017
			l-0.026,17.041h-8.508h-8.508l-0.026-0.017l0.026-17.041H255.622z M219.782,122.889l-22.153-29.551l45.764-76.271h3.695v42.667
			c-9.412,0.017-17.067,7.68-17.067,17.092V93.85c0,9.412,7.654,17.075,17.067,17.092v52.284c-0.845,0.23-1.647,0.606-2.475,0.896
			c-0.853,0.29-1.732,0.503-2.552,0.862l-20.574-17.143V128C221.488,126.157,220.891,124.365,219.782,122.889z M272.373,199.424
			c-0.077,0.384-0.196,0.76-0.29,1.135c-0.162,0.606-0.341,1.212-0.563,1.784c-0.171,0.461-0.375,0.896-0.589,1.331
			c-0.213,0.444-0.452,0.879-0.708,1.306c-0.29,0.478-0.589,0.956-0.922,1.399c-0.213,0.29-0.452,0.555-0.683,0.828
			c-0.444,0.521-0.887,1.041-1.382,1.502c-0.026,0.017-0.043,0.034-0.06,0.051c-2.039,1.86-4.531,3.251-7.356,3.968
			c-0.111,0.026-0.205,0.085-0.307,0.12c-1.254,0.299-2.543,0.495-3.891,0.495c-1.203,0-2.372-0.137-3.507-0.375
			c-0.085-0.026-0.162-0.068-0.247-0.085c-1.468-0.333-2.825-0.896-4.113-1.562c-0.486-0.256-0.99-0.478-1.442-0.785
			c-0.299-0.188-0.555-0.418-0.836-0.623c-0.58-0.435-1.152-0.879-1.672-1.382c-0.205-0.196-0.393-0.41-0.589-0.614
			c-0.529-0.572-1.024-1.161-1.476-1.792c-0.162-0.23-0.316-0.461-0.461-0.691c-0.418-0.649-0.785-1.331-1.109-2.039
			c-0.128-0.265-0.256-0.529-0.367-0.802c-0.29-0.725-0.512-1.485-0.7-2.253c-0.068-0.282-0.162-0.546-0.213-0.828
			c-0.205-1.05-0.333-2.133-0.333-3.234c0-1.306,0.188-2.586,0.478-3.831c0.068-0.333,0.196-0.64,0.29-0.956
			c0.273-0.913,0.597-1.801,1.016-2.654c0.162-0.333,0.341-0.649,0.521-0.956c0.478-0.836,1.024-1.63,1.63-2.372
			c0.196-0.239,0.375-0.478,0.589-0.7c0.776-0.862,1.647-1.638,2.611-2.33c1.382-0.998,2.884-1.741,4.437-2.287
			c0.23-0.077,0.452-0.145,0.683-0.213c1.562-0.469,3.174-0.768,4.813-0.768c1.647,0,3.26,0.299,4.821,0.777
			c0.222,0.06,0.452,0.128,0.674,0.205c1.57,0.555,3.081,1.297,4.471,2.304c0,0,0.009,0,0.009,0.009
			c1.05,0.768,1.98,1.647,2.816,2.586c0.137,0.162,0.273,0.324,0.401,0.486c0.64,0.776,1.186,1.604,1.673,2.466
			c0.162,0.307,0.341,0.606,0.495,0.922c0.393,0.811,0.683,1.655,0.939,2.526c0.102,0.341,0.247,0.683,0.324,1.033
			c0.273,1.22,0.444,2.466,0.444,3.755C272.689,197.35,272.569,198.4,272.373,199.424z M289.755,128v20.531l-20.036,16.7
			c-0.077-0.043-0.154-0.051-0.23-0.085c-0.913-0.41-1.886-0.691-2.842-1.024c-0.836-0.29-1.638-0.666-2.492-0.896v-52.284
			c9.412-0.017,17.067-7.68,17.067-17.092V76.826c0-9.412-7.654-17.075-17.067-17.092V17.067h3.703l45.764,76.271l-22.153,29.551
			C290.361,124.365,289.755,126.157,289.755,128z"/>
	</g>
</g>
<g>
</g>
<g>
</g>
<g>
</g>
<g>
</g>
<g>
</g>
<g>
</g>
<g>
</g>
<g>
</g>
<g>
</g>
<g>
</g>
<g>
</g>
<g>
</g>
<g>
</g>
<g>
</g>
<g>
</g>
</svg>
