<svg xmlns="http://www.w3.org/2000/svg" viewBox="0 0 26.49 47.8"><g id="Layer_2" data-name="Layer 2"><g id="Layer_1-2" data-name="Layer 1"><rect x="5.51" y="35.27" width="15.46" height="7.45" rx="1.26"/><rect x="5.51" y="25.55" width="15.46" height="7.45" rx="1.26"/><rect x="5.51" y="15.84" width="15.46" height="7.45" rx="1.26"/><path d="M22.16,47.8H4.33A4.33,4.33,0,0,1,0,43.47V8.61A4.33,4.33,0,0,1,4.33,4.28h2V2.85A2.86,2.86,0,0,1,9.18,0h8.14a2.85,2.85,0,0,1,2.84,2.85V4.28h2a4.33,4.33,0,0,1,4.33,4.33V43.47A4.33,4.33,0,0,1,22.16,47.8ZM4.33,7.28A1.34,1.34,0,0,0,3,8.61V43.47A1.34,1.34,0,0,0,4.33,44.8H22.16a1.34,1.34,0,0,0,1.33-1.33V8.61a1.34,1.34,0,0,0-1.33-1.33h-5V3H9.33V7.28Z"/></g></g></svg>