<svg xmlns="http://www.w3.org/2000/svg" viewBox="0 0 58.67 57.63"><defs><style>.cls-1,.cls-2,.cls-3{fill:none;stroke:#56425c;stroke-width:3px;}.cls-1,.cls-2{stroke-miterlimit:10;}.cls-2,.cls-3{stroke-linecap:round;}.cls-3{stroke-linejoin:round;}</style></defs><g id="Layer_2" data-name="Layer 2"><g id="Layer_1-2" data-name="Layer 1"><rect class="cls-1" x="4.47" y="30.71" width="17.77" height="8.05" rx="4.03"/><path class="cls-1" d="M22.24,34.69v8.74a4,4,0,0,1-4,4H8.5a4,4,0,0,1-4-4V34.69"/><path class="cls-1" d="M13.39,47.46v4.65a4,4,0,0,1-4,4H8.5a4,4,0,0,1-4-4V43.37"/><path class="cls-2" d="M32.12,12.68c-8.69,0-7-6.94-15.21-9.48C9.37.87,1.5,6.1,1.5,15.11c0,8.19,7.43,14.7,7.43,19.63"/><line class="cls-3" x1="51.43" y1="24.13" x2="49.89" y2="21.29"/><line class="cls-3" x1="57.17" y1="17.28" x2="54.19" y2="16.16"/><line class="cls-3" x1="57.17" y1="8.35" x2="54.19" y2="9.47"/><line class="cls-3" x1="51.43" y1="1.5" x2="49.89" y2="4.34"/><path class="cls-2" d="M45.26,17.05,36,17.51a3.5,3.5,0,0,1-3.88-3.24V11A3.5,3.5,0,0,1,36,7.81l9.26.34"/><path class="cls-2" d="M44.87,8.15h.54a3.46,3.46,0,0,1,3.46,3.46v1.91a3.53,3.53,0,0,1-3.53,3.53h-.47a3.53,3.53,0,0,1-3.53-3.53V11.68A3.53,3.53,0,0,1,44.87,8.15Z"/></g></g></svg>