<svg xmlns="http://www.w3.org/2000/svg" viewBox="0 0 37.49 51.22"><defs><style>.cls-1,.cls-2{stroke:#000;stroke-miterlimit:10;}.cls-1{stroke-width:2px;}</style></defs><g id="Layer_2" data-name="Layer 2"><g id="Layer_1-2" data-name="Layer 1"><path class="cls-1" d="M16.72,1h3.52a.25.25,0,0,1,.25.25V4.09a.25.25,0,0,1-.25.25H16.72a1.48,1.48,0,0,1-1.48-1.48V2.48A1.48,1.48,0,0,1,16.72,1Z"/><path class="cls-2" d="M37,34.06c0,7.07-4.67,12.83-10.41,12.83H22.07a.87.87,0,0,1,0-1.7h4.51c5,0,9-5,9-11.13s-4.05-11.14-9-11.14H9.06C4.34,22.92.5,18.19.5,12.37S4.34,1.82,9.06,1.82H22.12a.78.78,0,0,1,.69.85.78.78,0,0,1-.69.85H9.06c-4,0-7.18,4-7.18,8.85s3.22,8.85,7.18,8.85H26.58C32.32,21.22,37,27,37,34.06Z"/><path class="cls-2" d="M18.88,43.82v4.44a2.27,2.27,0,0,1-2,2.46H9.09V41.36h7.79A2.27,2.27,0,0,1,18.88,43.82ZM10.47,49h6.41a.7.7,0,0,0,.62-.76V43.82a.7.7,0,0,0-.62-.76H10.47Z"/><path class="cls-2" d="M22.56,45.52v1a2.27,2.27,0,0,1-2,2.46H18.33a.87.87,0,0,1,0-1.7h2.23a.7.7,0,0,0,.62-.76v-1a.7.7,0,0,0-.62-.75H18.33a.78.78,0,0,1-.69-.85.79.79,0,0,1,.69-.86h2.23A2.27,2.27,0,0,1,22.56,45.52Z"/><path class="cls-2" d="M10.24,47.92a.65.65,0,0,1-.57.7H7a.65.65,0,0,1-.57-.7A.66.66,0,0,1,7,47.21H9.67A.66.66,0,0,1,10.24,47.92Z"/><path class="cls-2" d="M10.24,44.17a.65.65,0,0,1-.57.7H7a.65.65,0,0,1-.57-.7A.66.66,0,0,1,7,43.46H9.67A.66.66,0,0,1,10.24,44.17Z"/></g></g></svg>