<svg xmlns="http://www.w3.org/2000/svg" viewBox="0 0 37.34 45.59"><defs><style>.cls-1{fill:none;stroke:#000;stroke-linecap:round;stroke-miterlimit:10;stroke-width:3px;}</style></defs><g id="Layer_2" data-name="Layer 2"><g id="Layer_1-2" data-name="Layer 1"><path class="cls-1" d="M6.65,13.4c0,2.72-1,4.56-2,6.89A28.57,28.57,0,0,0,1.5,33.72c0,5,6,10.37,17.17,10.37s17.17-5.34,17.17-10.37a28.45,28.45,0,0,0-3.11-13.43c-1.08-2.33-2-4.17-2-6.89"/><rect class="cls-1" x="6.65" y="1.5" width="15.43" height="7.53" rx="3.77"/><path class="cls-1" d="M9.16,1.5H26.92a3.77,3.77,0,0,1,3.77,3.77v0A3.77,3.77,0,0,1,26.92,9H9.16A2.51,2.51,0,0,1,6.65,6.52V4A2.51,2.51,0,0,1,9.16,1.5Z"/><path class="cls-1" d="M30.69,5.23V13.4h0a3.64,3.64,0,0,1-3.49,3.77h-17a3.65,3.65,0,0,1-3.5-3.77h0V5.23"/><path class="cls-1" d="M25.84,1.5h2.34A2.51,2.51,0,0,1,30.69,4V6.52A2.51,2.51,0,0,1,28.18,9H25.84a3.77,3.77,0,0,1-3.77-3.77v0A3.77,3.77,0,0,1,25.84,1.5Z"/></g></g></svg>