<svg xmlns="http://www.w3.org/2000/svg" viewBox="0 0 26 51.59"><defs><style>.cls-1{fill:none;stroke:#fff;stroke-linecap:round;stroke-miterlimit:10;stroke-width:0.75px;}.cls-2{fill:#fff;}</style></defs><g id="Layer_2" data-name="Layer 2"><g id="Layer_1-2" data-name="Layer 1"><path d="M15.79,0A3.82,3.82,0,0,1,18,.81a21.46,21.46,0,0,0,5.85,3.6A2.91,2.91,0,0,1,26,7V34.51s.18,3.92-5.53,3.92c-.47,0-2.78.1-2.78,1.76v2.47H18s1.36,0,1.36,1l0,3.49c0,2.45-2.8,4.44-6.24,4.44s-6.25-2-6.25-4.44V43.67s-.12-1,1.28-1V40.24s.24-1.85-2.77-1.85c0,0-5.33.21-5.33-3.8V3S-.34,0,4.13,0,15.79,0,15.79,0Z"/><line class="cls-1" x1="13.15" y1="12.17" x2="13.15" y2="24.74"/><polygon class="cls-2" points="11.28 12.72 13.15 9.48 15.02 12.72 11.28 12.72"/><path class="cls-1" d="M13.15,20.8a3.17,3.17,0,0,0,2.78-3.27"/><path class="cls-1" d="M13.15,22.3a2.73,2.73,0,0,1-2.77-3"/><ellipse class="cls-2" cx="13.16" cy="26.03" rx="1.87" ry="1.72"/><ellipse class="cls-2" cx="10.31" cy="17.93" rx="1.75" ry="1.61"/><rect class="cls-2" x="14.47" y="14.85" width="2.76" height="3" transform="translate(32.2 0.5) rotate(90)"/><rect class="cls-1" x="0.73" y="13.38" width="24.87" height="11.67" rx="0.13" transform="translate(32.38 6.05) rotate(90)"/></g></g></svg>