<svg xmlns="http://www.w3.org/2000/svg" viewBox="0 0 35.63 55.26"><g id="Layer_2" data-name="Layer 2"><g id="Layer_1-2" data-name="Layer 1"><path d="M22,50.06H13.59a1.62,1.62,0,0,1,0-3.23H22a1.62,1.62,0,1,1,0,3.23Z"/><path d="M20.33,55.26h-5.1a1.62,1.62,0,0,1,0-3.24h5.1a1.62,1.62,0,0,1,0,3.24Z"/><path d="M21.58,44.86H14.3a2.73,2.73,0,0,1-2.71-2.4l-.47-3.92a12.51,12.51,0,1,1,13.66-.23l-.49,4.14A2.73,2.73,0,0,1,21.58,44.86Zm-6.84-3.23h6.4l.51-4.46A1.64,1.64,0,0,1,22.44,36a9.25,9.25,0,1,0-9,.17,1.65,1.65,0,0,1,.84,1.23Z"/><path d="M17.78,10.07a1.62,1.62,0,0,1-1.62-1.62V1.62a1.62,1.62,0,1,1,3.24,0V8.45A1.62,1.62,0,0,1,17.78,10.07Z"/><path d="M29.59,14.41A1.63,1.63,0,0,1,28.54,14a1.6,1.6,0,0,1-.18-2.27l4.42-5.22a1.62,1.62,0,0,1,2.47,2.1l-4.43,5.21A1.63,1.63,0,0,1,29.59,14.41Z"/><path d="M6,14.36a1.59,1.59,0,0,1-1.23-.57L.38,8.56A1.63,1.63,0,0,1,.57,6.28a1.63,1.63,0,0,1,2.28.2l4.41,5.23A1.61,1.61,0,0,1,7.06,14,1.57,1.57,0,0,1,6,14.36Z"/></g></g></svg>