<svg xmlns="http://www.w3.org/2000/svg" viewBox="0 0 43.88 49.8"><defs><style>.cls-1,.cls-2{stroke:#000;stroke-miterlimit:10;}.cls-1{stroke-width:2px;}.cls-2{stroke-width:0.75px;}</style></defs><g id="Layer_2" data-name="Layer 2"><g id="Layer_1-2" data-name="Layer 1"><path class="cls-1" d="M7.2,2.86l-.79.9a5.45,5.45,0,0,0-1.36,3.6V8.71H1V19.5H5.05V31.84H1V38H5.05v9.31A1.48,1.48,0,0,0,6.53,48.8H41.72a1.16,1.16,0,0,0,1.16-1.16V6.52c0-3-2.16-5.52-4.83-5.52H11.3A5.45,5.45,0,0,0,7.2,2.86ZM2.35,18V10.25h8.11V18Zm0,18.5V33.38h8.11v3.08Zm39.18,10.8H6.4V38h5.41V35.69h1.35V34.15H11.81V31.84H6.4V19.5h5.41V18h1.35V16.42H11.81V11.79h1.35V10.25H11.81V8.71H6.4V8A5.43,5.43,0,0,1,7.76,4.4h0a5.45,5.45,0,0,1,4.1-1.86H38.11a3.69,3.69,0,0,1,3.42,3.9Z"/><path class="cls-2" d="M26.67,44.17h9.46V42.63h1.35V41.09H36.13V39.55h1.35V38H36.13V36.46h1.35V34.92H36.13V33.38h1.35V31.84H36.13V30.3h1.35V28.75H36.13V27.21h1.35V25.67H36.13V24.13h1.35V22.59H36.13V21.05h1.35V19.5H36.13V18h1.35V16.42H36.13V14.88h1.35V13.34H36.13V11.79h1.35V10.25H36.13V8.71h1.35V7.17H36.13V5.63H26.67V7.17H25.32V8.71h1.35v1.54H25.32v1.54h1.35v1.55H25.32v1.54h1.35v1.54H25.32V18h1.35V19.5H25.32v1.55h1.35v1.54H25.32v1.54h1.35v1.54H25.32v1.54h1.35v1.54H25.32V30.3h1.35v1.54H25.32v1.54h1.35v1.54H25.32v1.54h1.35V38H25.32v1.54h1.35v1.54H25.32v1.54h1.35ZM28,7.17h6.76V42.63H28Z"/><path class="cls-2" d="M22.62,7.17H17.21v4.62h5.41Zm-1.35,3.08H18.56V8.71h2.71Z"/><path class="cls-2" d="M22.62,14.88H17.21V19.5h5.41ZM21.27,18H18.56V16.42h2.71Z"/><path class="cls-2" d="M13.16,21.82v1.54H11.81V21.82H10.46v1.54H9.11V28h1.35v1.55h1.35V28h1.35v1.55h1.35V28h1.35v1.55h1.35V28h1.35V23.36H17.21V21.82H15.86v1.54H14.51V21.82Zm4.05,3.08v1.54H10.46V24.9Z"/><path class="cls-2" d="M18.52,38.68a3.09,3.09,0,1,0,3.06,3.08A3.08,3.08,0,0,0,18.52,38.68Zm0,4.62a1.54,1.54,0,1,1,1.53-1.54A1.53,1.53,0,0,1,18.52,43.3Z"/><rect class="cls-2" x="15.86" y="33.38" width="1.35" height="3.08"/><rect class="cls-2" x="18.56" y="33.38" width="1.35" height="3.08"/><rect class="cls-2" x="21.27" y="33.38" width="1.35" height="3.08"/></g></g></svg>