<svg xmlns="http://www.w3.org/2000/svg" viewBox="0 0 47.7 48.22"><defs><style>.cls-1{fill:none;stroke:#000;stroke-linecap:round;stroke-miterlimit:10;stroke-width:3px;}</style></defs><g id="Layer_2" data-name="Layer 2"><g id="Layer_1-2" data-name="Layer 1"><line class="cls-1" x1="12.48" y1="11.61" x2="35.23" y2="11.61"/><line class="cls-1" x1="9.48" y1="18.16" x2="38.23" y2="18.16"/><line class="cls-1" x1="9.48" y1="24.71" x2="38.23" y2="24.71"/><line class="cls-1" x1="12.48" y1="31.26" x2="35.23" y2="31.26"/><ellipse class="cls-1" cx="23.85" cy="22" rx="22.35" ry="20.5"/><path class="cls-1" d="M1.5,22v4.22c0,11.32,10,20.5,22.35,20.5S46.2,37.54,46.2,26.22V22"/><path d="M7.85,41.39c5.43,3,11.49,6.08,17.89,5.5a30,30,0,0,0,9.2-2.72c2.66-1.15,5.34-2.39,6.84-5,1.6-2.8-2.72-5.32-4.32-2.52-1,1.79-3.45,2.55-5.25,3.32a21.2,21.2,0,0,1-7.35,2c-5.22.21-10-2.4-14.48-4.87C7.56,35.51,5,39.83,7.85,41.39Z"/></g></g></svg>