<svg xmlns="http://www.w3.org/2000/svg" viewBox="0 0 87.56 48.62"><defs><style>.cls-1,.cls-2{stroke:#000;stroke-miterlimit:10;}.cls-2{fill:none;stroke-linecap:round;stroke-width:3px;}</style></defs><g id="Layer_2" data-name="Layer 2"><g id="Layer_1-2" data-name="Layer 1"><path class="cls-1" d="M84.31,42l-9.49,4.31A3.31,3.31,0,0,1,70.19,44h0a4.67,4.67,0,0,1,2.36-5.46l9.5-4.32a.56.56,0,0,1,.78.39l1.88,6.43A.8.8,0,0,1,84.31,42Z"/><path class="cls-2" d="M49.81,12.74,67.9,4.26c4-1.89,8.49.61,10,5.58h0c1.52,5-.5,10.53-4.52,12.41L60.1,28.5c-4,1.88-6,7.44-4.51,12.41h0c1.52,5,6,7.47,10,5.59l20.45-9.61"/><line class="cls-2" x1="13.87" y1="11.43" x2="39.5" y2="11.43"/><line class="cls-2" x1="10.49" y1="17.87" x2="42.88" y2="17.87"/><line class="cls-2" x1="10.49" y1="24.3" x2="42.88" y2="24.3"/><line class="cls-2" x1="13.87" y1="30.73" x2="39.5" y2="30.73"/><ellipse class="cls-2" cx="26.68" cy="21.64" rx="25.18" ry="20.14"/><path class="cls-2" d="M1.5,21.64v4.14c0,11.13,11.28,20.15,25.18,20.15s25.19-9,25.19-20.15V21.64"/><path d="M7.85,39.56c5.82,3.69,13.06,6.32,20,6.32A31.65,31.65,0,0,0,38.44,43.8c2.86-1,7.55-2.17,8.24-5.66a2.58,2.58,0,0,0-1.75-3.08,2.52,2.52,0,0,0-3.07,1.75c-.14.68.24-.06,0,.14s-.34.22-.52.33a14.41,14.41,0,0,1-1.66.73c-1.39.57-2.8,1.1-4.24,1.55a24.19,24.19,0,0,1-8.92,1.27,35.23,35.23,0,0,1-16.11-5.59c-2.72-1.73-5.23,2.6-2.52,4.32Z"/></g></g></svg>